<svg id="visual" viewBox="0 0 1123 540" width="1123" height="540" xmlns="http://www.w3.org/2000/svg" xmlns:xlink="http://www.w3.org/1999/xlink" version="1.1"><path d="M0 289L15.7 306.8C31.3 324.7 62.7 360.3 93.8 359.7C125 359 156 322 187.2 309.5C218.3 297 249.7 309 280.8 332.8C312 356.7 343 392.3 374.2 396.2C405.3 400 436.7 372 468 378C499.3 384 530.7 424 561.8 415.8C593 407.7 624 351.3 655.2 323.3C686.3 295.3 717.7 295.7 748.8 317.7C780 339.7 811 383.3 842.2 393.7C873.3 404 904.7 381 935.8 382C967 383 998 408 1029.2 405.3C1060.3 402.7 1091.7 372.3 1107.3 357.2L1123 342L1123 541L1107.3 541C1091.7 541 1060.3 541 1029.2 541C998 541 967 541 935.8 541C904.7 541 873.3 541 842.2 541C811 541 780 541 748.8 541C717.7 541 686.3 541 655.2 541C624 541 593 541 561.8 541C530.7 541 499.3 541 468 541C436.7 541 405.3 541 374.2 541C343 541 312 541 280.8 541C249.7 541 218.3 541 187.2 541C156 541 125 541 93.8 541C62.7 541 31.3 541 15.7 541L0 541Z" fill="#FFFFFF" stroke-linecap="round" stroke-linejoin="miter"></path></svg>